<svg height="512" viewBox="0 0 512 512" width="512" xmlns="http://www.w3.org/2000/svg"><g id="filled_outline" data-name="filled outline"><g fill="#fbb540"><path d="m351.642 474.979a44.458 44.458 0 1 1 -59.981-65.52l53.244-46.067-4.038 37.438 83.133-51.277-49.615 72.839 26.908 7z"/><path d="m107.893 213.425a44.458 44.458 0 1 1 -59.981-65.52l53.244-46.066-4.038 37.438 78.882-43.277-45.364 64.839 26.908 7z"/><path d="m172.4 464a88 88 0 0 1 -120.8-128l97.255-89.155-7.467 37.334 83.284-64.179-5.744 44.65 149.072-104.65-135.287 177.312 55.097 4.688z"/></g><circle cx="112" cy="400" fill="#e82f3e" r="56"/><path d="m165.74 415.79a55.881 55.881 0 0 1 -14.53 24.19 16 16 0 1 1 14.53-24.19z" fill="#e82f3e"/><circle cx="96" cy="408" fill="#d32b39" r="16"/><path d="m165.74 415.79a55.881 55.881 0 0 1 -14.53 24.19 16 16 0 1 1 14.53-24.19z" fill="#d32b39"/><path d="m104 400a8 8 0 0 1 -5.657-13.657l16-16a8 8 0 0 1 11.314 11.314l-16 16a7.974 7.974 0 0 1 -5.657 2.343z" fill="#fbd59b"/><path d="m160 416a8 8 0 0 1 -5.657-13.657l48-48a8 8 0 1 1 11.314 11.314l-48 48a7.974 7.974 0 0 1 -5.657 2.343z" fill="#fbd59b"/><path d="m112 360a8 8 0 0 1 -5.657-13.657l48-48a8 8 0 1 1 11.314 11.314l-48 48a7.974 7.974 0 0 1 -5.657 2.343z" fill="#fbd59b"/><path d="m290.65 322.651a8 8 0 0 1 -5.758-13.552l51.082-53a8 8 0 1 1 11.519 11.1l-51.082 53a7.974 7.974 0 0 1 -5.761 2.452z" fill="#d18d28"/><path d="m252.607 204.161a8 8 0 0 1 -5.549-13.763l29.23-28.147a8 8 0 1 1 11.1 11.525l-29.231 28.148a7.972 7.972 0 0 1 -5.55 2.237z" fill="#e82f3e"/><path d="m178.651 344a8 8 0 0 1 -5.657-13.657l29.349-29.349a8 8 0 1 1 11.314 11.314l-29.348 29.349a7.978 7.978 0 0 1 -5.658 2.343z" fill="#fbd59b"/><circle cx="76.457" cy="181.989" fill="#d32b39" r="21.989"/><circle cx="320.151" cy="443.543" fill="#e82f3e" r="19.543"/><path d="m406.4 320a8 8 0 0 1 -5.126-14.146l9.6-8a8 8 0 0 1 10.244 12.292l-9.6 8a7.971 7.971 0 0 1 -5.118 1.854z" fill="#d18d28"/><path d="m464 368a8 8 0 0 1 -5.126-14.146l9.6-8a8 8 0 0 1 10.244 12.292l-9.6 8a7.971 7.971 0 0 1 -5.118 1.854z" fill="#fbb540"/><path d="m432 400a8 8 0 0 1 -5.126-14.146l9.6-8a8 8 0 0 1 10.244 12.292l-9.6 8a7.971 7.971 0 0 1 -5.118 1.854z" fill="#d18d28"/><path d="m368 352a8 8 0 0 1 -5.125-14.146l16-13.333a8 8 0 1 1 10.242 12.291l-16 13.334a7.966 7.966 0 0 1 -5.117 1.854z" fill="#fbb540"/><path d="m480 304a8 8 0 0 1 -5.657-13.657l8-8a8 8 0 0 1 11.314 11.314l-8 8a7.974 7.974 0 0 1 -5.657 2.343z" fill="#fbb540"/><path d="m408 208a8 8 0 0 1 -5.657-13.657l8-8a8 8 0 0 1 11.314 11.314l-8 8a7.974 7.974 0 0 1 -5.657 2.343z" fill="#d18d28"/><path d="m320 144a8 8 0 0 1 -5.657-13.657l8-8a8 8 0 1 1 11.314 11.314l-8 8a7.974 7.974 0 0 1 -5.657 2.343z" fill="#d18d28"/><path d="m448 336a8 8 0 0 1 -5.657-13.657l16-16a8 8 0 0 1 11.314 11.314l-16 16a7.974 7.974 0 0 1 -5.657 2.343z" fill="#e82f3e"/><path d="m368 248a8 8 0 0 1 -5.657-13.657l16-16a8 8 0 0 1 11.314 11.314l-16 16a7.974 7.974 0 0 1 -5.657 2.343z" fill="#fbb540"/><path d="m224 112a8 8 0 0 1 -5.657-13.657l8-8a8 8 0 0 1 11.314 11.314l-8 8a7.974 7.974 0 0 1 -5.657 2.343z" fill="#e82f3e"/><path d="m184 152a8 8 0 0 1 -5.657-13.657l16-16a8 8 0 1 1 11.314 11.314l-16 16a7.974 7.974 0 0 1 -5.657 2.343z" fill="#d18d28"/><path d="m237.337 48a8 8 0 0 1 -5.21-14.074l18.667-16a8 8 0 1 1 10.412 12.148l-18.667 16a7.967 7.967 0 0 1 -5.202 1.926z" fill="#d18d28"/><path d="m200 80a8 8 0 0 1 -5.21-14.074l16-13.715a8 8 0 0 1 10.416 12.149l-16 13.714a7.967 7.967 0 0 1 -5.206 1.926z" fill="#fbb540"/><path d="m156.574 56a8 8 0 0 1 -5.27-14.021l27.428-24a8 8 0 1 1 10.536 12.042l-27.429 24a7.972 7.972 0 0 1 -5.265 1.979z" fill="#d18d28"/><path d="m120 88a8 8 0 0 1 -5.271-14.021l18.287-16a8 8 0 0 1 10.535 12.042l-18.286 16a7.967 7.967 0 0 1 -5.265 1.979z" fill="#e82f3e"/><path d="m436.447 104a8 8 0 0 1 -5.354-13.946l35.555-32a8 8 0 1 1 10.7 11.892l-35.556 32a7.968 7.968 0 0 1 -5.345 2.054z" fill="#fbb540"/><path d="m392 144a8 8 0 0 1 -5.355-13.946l17.778-16a8 8 0 1 1 10.7 11.892l-17.777 16a7.972 7.972 0 0 1 -5.346 2.054z" fill="#e82f3e"/><path d="m125.657 370.343a8 8 0 0 0 -11.314 0l-14.049 14.049a24.025 24.025 0 1 0 14.245 8.383l11.118-11.118a8 8 0 0 0 0-11.314zm-29.657 45.657a8 8 0 1 1 8-8 8.009 8.009 0 0 1 -8 8z"/><path d="m202.343 354.343-28.654 28.657a64.265 64.265 0 0 0 -38.673-42.7l30.641-30.641a8 8 0 1 0 -11.314-11.314l-37.833 37.832c-1.492-.105-2.992-.177-4.51-.177a64 64 0 1 0 63.908 67.406l37.749-37.749a8 8 0 1 0 -11.314-11.314zm-53.889 76.831a8 8 0 1 1 8.222-13.658 48.05 48.05 0 0 1 -8.222 13.658zm-84.454-31.174a48.069 48.069 0 0 1 40.032-47.326 8 8 0 0 0 13.625 4.983l4.553-4.553a48.085 48.085 0 0 1 37.672 43.7l-3.582 3.586a23.972 23.972 0 0 0 -20.5 41.27 47.964 47.964 0 0 1 -71.8-41.66z"/><path d="m295.286 339.151a8 8 0 0 0 -6.8-5.122l-40.573-3.452 126.447-165.724a8 8 0 0 0 -10.957-11.4l-134.226 94.228 3.429-26.66a8 8 0 0 0 -12.817-7.358l-66.366 51.143 3.278-16.392a8 8 0 0 0 -13.251-7.466l-97.25 89.152-.086.08a95.117 95.117 0 0 0 -30.114 69.82 96 96 0 0 0 161.891 69.817c.109-.1.215-.21.319-.319l115.412-122a8 8 0 0 0 1.664-8.347zm-128.54 119.183a80 80 0 0 1 -109.693-116.478l79.155-72.564-2.663 13.318a8 8 0 0 0 12.727 7.906l68-52.405-3.283 25.518a8 8 0 0 0 12.531 7.569l106.747-74.937-103.918 136.2a8 8 0 0 0 5.682 12.824l38.554 3.28z"/><path d="m335.974 256.1-51.082 53a8 8 0 1 0 11.519 11.1l51.082-53a8 8 0 1 0 -11.519-11.1z"/><path d="m246.844 201.71a8 8 0 0 0 11.311.214l29.231-28.148a8 8 0 1 0 -11.1-11.525l-29.228 28.149a8 8 0 0 0 -.214 11.31z"/><path d="m202.343 300.994-29.349 29.349a8 8 0 0 0 11.315 11.314l29.348-29.349a8 8 0 1 0 -11.314-11.314z"/><path d="m76.457 206.14a24.151 24.151 0 1 0 -24.15-24.151 24.178 24.178 0 0 0 24.15 24.151zm0-32.3a8.151 8.151 0 1 1 -8.15 8.15 8.159 8.159 0 0 1 8.15-8.151z"/><path d="m76.457 234.447a52.119 52.119 0 0 0 36.968-15.239l49.529-45.476a8 8 0 0 0 -3.4-13.635l-15.769-4.1 38.766-55.408a8 8 0 0 0 -10.4-11.6l-65.435 35.9 2.392-22.189a8 8 0 0 0 -13.188-6.908l-53.2 46.027a52.459 52.459 0 0 0 33.734 92.631zm-23.4-80.411.094-.081 37.876-32.771-1.858 17.235a8 8 0 0 0 11.8 7.872l48.824-26.791-25.712 36.75a8 8 0 0 0 4.541 12.328l12.69 3.3-38.829 35.65c-.084.077-.166.156-.246.236a36.458 36.458 0 1 1 -49.185-53.732z"/><path d="m320.15 419.392a24.151 24.151 0 1 0 24.15 24.151 24.178 24.178 0 0 0 -24.15-24.151zm0 32.3a8.151 8.151 0 1 1 8.152-8.15 8.159 8.159 0 0 1 -8.152 8.151z"/><path d="m403.307 421.65-15.916-4.141 43.221-63.452a8 8 0 0 0 -10.812-11.313l-69.228 42.7 2.286-21.194a8 8 0 0 0 -13.188-6.908l-53.2 46.027a52.458 52.458 0 1 0 70.7 77.393l49.53-45.477a8 8 0 0 0 -3.4-13.635zm-57.075 47.436c-.084.077-.166.156-.246.236a36.458 36.458 0 1 1 -49.186-53.733l.1-.081 37.875-32.771-1.858 17.235a8 8 0 0 0 12.154 7.667l51.2-31.579-28.493 41.828a8 8 0 0 0 4.6 12.246l12.69 3.3z"/><path d="m410.878 297.854-9.6 8a8 8 0 0 0 10.244 12.292l9.6-8a8 8 0 0 0 -10.244-12.292z"/><path d="m468.478 345.854-9.6 8a8 8 0 0 0 10.244 12.292l9.6-8a8 8 0 0 0 -10.244-12.292z"/><path d="m436.478 377.854-9.6 8a8 8 0 0 0 10.244 12.292l9.6-8a8 8 0 0 0 -10.244-12.292z"/><path d="m378.879 324.521-16 13.333a8 8 0 1 0 10.242 12.292l16-13.334a8 8 0 1 0 -10.242-12.291z"/><path d="m493.657 282.343a8 8 0 0 0 -11.314 0l-8 8a8 8 0 0 0 11.314 11.314l8-8a8 8 0 0 0 0-11.314z"/><path d="m410.343 186.343-8 8a8 8 0 0 0 11.314 11.314l8-8a8 8 0 0 0 -11.314-11.314z"/><path d="m320 144a7.974 7.974 0 0 0 5.657-2.343l8-8a8 8 0 1 0 -11.314-11.314l-8 8a8 8 0 0 0 5.657 13.657z"/><path d="m469.657 306.343a8 8 0 0 0 -11.314 0l-16 16a8 8 0 0 0 11.314 11.314l16-16a8 8 0 0 0 0-11.314z"/><path d="m362.343 245.657a8 8 0 0 0 11.314 0l16-16a8 8 0 0 0 -11.314-11.314l-16 16a8 8 0 0 0 0 11.314z"/><path d="m218.343 109.657a8 8 0 0 0 11.314 0l8-8a8 8 0 0 0 -11.314-11.314l-8 8a8 8 0 0 0 0 11.314z"/><path d="m194.343 122.343-16 16a8 8 0 0 0 11.314 11.314l16-16a8 8 0 1 0 -11.314-11.314z"/><path d="m237.337 48a7.967 7.967 0 0 0 5.2-1.926l18.667-16a8 8 0 1 0 -10.412-12.148l-18.667 16a8 8 0 0 0 5.212 14.074z"/><path d="m200 80a7.967 7.967 0 0 0 5.2-1.926l16-13.714a8 8 0 0 0 -10.412-12.149l-16 13.715a8 8 0 0 0 5.212 14.074z"/><path d="m156.574 56a7.972 7.972 0 0 0 5.265-1.979l27.429-24a8 8 0 1 0 -10.536-12.042l-27.428 24a8 8 0 0 0 5.27 14.021z"/><path d="m120 88a7.967 7.967 0 0 0 5.265-1.979l18.286-16a8 8 0 0 0 -10.535-12.042l-18.287 16a8 8 0 0 0 5.271 14.021z"/><path d="m436.447 104a7.968 7.968 0 0 0 5.349-2.054l35.556-32a8 8 0 1 0 -10.7-11.892l-35.555 32a8 8 0 0 0 5.35 13.946z"/><path d="m392 144a7.972 7.972 0 0 0 5.349-2.054l17.777-16a8 8 0 1 0 -10.7-11.892l-17.778 16a8 8 0 0 0 5.352 13.946z"/></g></svg>